<mxfile host="65bd71144e">
    <diagram id="VV6JtfN1NZM-Pk6Y8z8u" name="Page-1">
        <mxGraphModel dx="3116" dy="2026" grid="1" gridSize="10" guides="1" tooltips="1" connect="1" arrows="1" fold="1" page="1" pageScale="1" pageWidth="827" pageHeight="1169" math="0" shadow="0">
            <root>
                <mxCell id="0"/>
                <mxCell id="1" parent="0"/>
                <mxCell id="2" value="Utilisateur" style="shape=umlActor;verticalLabelPosition=bottom;verticalAlign=top;html=1;outlineConnect=0;" vertex="1" parent="1">
                    <mxGeometry x="50" y="540" width="30" height="60" as="geometry"/>
                </mxCell>
                <mxCell id="3" value="Parcourir la liste des clients" style="ellipse;whiteSpace=wrap;html=1;" vertex="1" parent="1">
                    <mxGeometry x="250" y="530" width="120" height="80" as="geometry"/>
                </mxCell>
                <mxCell id="4" value="" style="endArrow=none;html=1;entryX=0;entryY=0.5;entryDx=0;entryDy=0;" edge="1" parent="1" source="2" target="3">
                    <mxGeometry width="50" height="50" relative="1" as="geometry">
                        <mxPoint x="390" y="490" as="sourcePoint"/>
                        <mxPoint x="440" y="440" as="targetPoint"/>
                    </mxGeometry>
                </mxCell>
                <mxCell id="5" value="Créer une nouvelle fiche client" style="ellipse;whiteSpace=wrap;html=1;" vertex="1" parent="1">
                    <mxGeometry x="400" y="400" width="120" height="80" as="geometry"/>
                </mxCell>
                <mxCell id="6" value="" style="endArrow=none;html=1;entryX=0;entryY=0.5;entryDx=0;entryDy=0;exitX=1;exitY=0;exitDx=0;exitDy=0;" edge="1" parent="1" source="3" target="5">
                    <mxGeometry width="50" height="50" relative="1" as="geometry">
                        <mxPoint x="90" y="580" as="sourcePoint"/>
                        <mxPoint x="260" y="580" as="targetPoint"/>
                    </mxGeometry>
                </mxCell>
                <mxCell id="7" value="Mettre à jour une fiche client existante" style="ellipse;whiteSpace=wrap;html=1;" vertex="1" parent="1">
                    <mxGeometry x="400" y="530" width="120" height="80" as="geometry"/>
                </mxCell>
                <mxCell id="8" value="" style="endArrow=block;html=1;exitX=0.5;exitY=0;exitDx=0;exitDy=0;entryX=0.5;entryY=1;entryDx=0;entryDy=0;endFill=0;" edge="1" parent="1" source="7" target="5">
                    <mxGeometry width="50" height="50" relative="1" as="geometry">
                        <mxPoint x="390" y="480" as="sourcePoint"/>
                        <mxPoint x="440" y="430" as="targetPoint"/>
                    </mxGeometry>
                </mxCell>
                <mxCell id="9" value="" style="endArrow=none;html=1;entryX=0;entryY=0.5;entryDx=0;entryDy=0;exitX=1;exitY=0.5;exitDx=0;exitDy=0;" edge="1" parent="1" source="3" target="7">
                    <mxGeometry width="50" height="50" relative="1" as="geometry">
                        <mxPoint x="362.42640687119297" y="551.7157287525381" as="sourcePoint"/>
                        <mxPoint x="409.9999999999998" y="450" as="targetPoint"/>
                    </mxGeometry>
                </mxCell>
                <mxCell id="13" value="Renseigner l'adresse mail" style="ellipse;whiteSpace=wrap;html=1;" vertex="1" parent="1">
                    <mxGeometry x="560" y="100" width="120" height="80" as="geometry"/>
                </mxCell>
                <mxCell id="14" value="Renseigner le téléphone fixe" style="ellipse;whiteSpace=wrap;html=1;" vertex="1" parent="1">
                    <mxGeometry x="240" y="100" width="120" height="80" as="geometry"/>
                </mxCell>
                <mxCell id="15" value="Renseigner le téléphone mobile" style="ellipse;whiteSpace=wrap;html=1;" vertex="1" parent="1">
                    <mxGeometry x="399" y="100" width="120" height="80" as="geometry"/>
                </mxCell>
                <mxCell id="17" value="Rédiger un commentaire sur le client" style="ellipse;whiteSpace=wrap;html=1;" vertex="1" parent="1">
                    <mxGeometry x="680" y="350" width="120" height="80" as="geometry"/>
                </mxCell>
                <mxCell id="18" value="Mettre un indicatif d'état du client" style="ellipse;whiteSpace=wrap;html=1;" vertex="1" parent="1">
                    <mxGeometry x="680" y="450" width="120" height="80" as="geometry"/>
                </mxCell>
                <mxCell id="19" value="" style="endArrow=classic;html=1;exitX=0;exitY=0;exitDx=0;exitDy=0;entryX=0.5;entryY=1;entryDx=0;entryDy=0;dashed=1;endFill=1;" edge="1" parent="1" source="5" target="10">
                    <mxGeometry relative="1" as="geometry">
                        <mxPoint x="400" y="350" as="sourcePoint"/>
                        <mxPoint x="570" y="370" as="targetPoint"/>
                    </mxGeometry>
                </mxCell>
                <mxCell id="20" value="&amp;lt;&amp;lt;include&amp;gt;&amp;gt;" style="edgeLabel;resizable=0;html=1;align=center;verticalAlign=middle;" connectable="0" vertex="1" parent="19">
                    <mxGeometry relative="1" as="geometry"/>
                </mxCell>
                <mxCell id="21" value="" style="endArrow=classic;html=1;exitX=0;exitY=0;exitDx=0;exitDy=0;entryX=0.67;entryY=1.03;entryDx=0;entryDy=0;dashed=1;endFill=1;entryPerimeter=0;" edge="1" parent="1" source="5" target="14">
                    <mxGeometry relative="1" as="geometry">
                        <mxPoint x="427.57359312880703" y="421.7157287525381" as="sourcePoint"/>
                        <mxPoint x="310" y="290" as="targetPoint"/>
                    </mxGeometry>
                </mxCell>
                <mxCell id="22" value="&amp;lt;&amp;lt;include&amp;gt;&amp;gt;" style="edgeLabel;resizable=0;html=1;align=center;verticalAlign=middle;" connectable="0" vertex="1" parent="21">
                    <mxGeometry relative="1" as="geometry"/>
                </mxCell>
                <mxCell id="10" value="Renseigner le nom du client" style="ellipse;whiteSpace=wrap;html=1;" vertex="1" parent="1">
                    <mxGeometry x="240" y="200" width="120" height="80" as="geometry"/>
                </mxCell>
                <mxCell id="23" value="" style="endArrow=classic;html=1;exitX=0.5;exitY=0;exitDx=0;exitDy=0;entryX=0.5;entryY=1;entryDx=0;entryDy=0;dashed=1;endFill=1;" edge="1" parent="1" source="5" target="11">
                    <mxGeometry relative="1" as="geometry">
                        <mxPoint x="437.57359312880703" y="431.7157287525381" as="sourcePoint"/>
                        <mxPoint x="320" y="300" as="targetPoint"/>
                    </mxGeometry>
                </mxCell>
                <mxCell id="24" value="&amp;lt;&amp;lt;include&amp;gt;&amp;gt;" style="edgeLabel;resizable=0;html=1;align=center;verticalAlign=middle;" connectable="0" vertex="1" parent="23">
                    <mxGeometry relative="1" as="geometry"/>
                </mxCell>
                <mxCell id="25" value="" style="endArrow=classic;html=1;exitX=0.5;exitY=0;exitDx=0;exitDy=0;entryX=0.5;entryY=1;entryDx=0;entryDy=0;dashed=1;endFill=1;" edge="1" parent="1" source="5" target="15">
                    <mxGeometry relative="1" as="geometry">
                        <mxPoint x="447.57359312880703" y="441.7157287525381" as="sourcePoint"/>
                        <mxPoint x="330" y="310" as="targetPoint"/>
                    </mxGeometry>
                </mxCell>
                <mxCell id="26" value="&amp;lt;&amp;lt;include&amp;gt;&amp;gt;" style="edgeLabel;resizable=0;html=1;align=center;verticalAlign=middle;" connectable="0" vertex="1" parent="25">
                    <mxGeometry relative="1" as="geometry"/>
                </mxCell>
                <mxCell id="11" value="Renseigner le prénom du client" style="ellipse;whiteSpace=wrap;html=1;" vertex="1" parent="1">
                    <mxGeometry x="399" y="200" width="120" height="80" as="geometry"/>
                </mxCell>
                <mxCell id="27" value="" style="endArrow=classic;html=1;exitX=1;exitY=0;exitDx=0;exitDy=0;entryX=0.458;entryY=1.011;entryDx=0;entryDy=0;dashed=1;endFill=1;entryPerimeter=0;" edge="1" parent="1" source="5" target="12">
                    <mxGeometry relative="1" as="geometry">
                        <mxPoint x="457.57359312880703" y="451.7157287525381" as="sourcePoint"/>
                        <mxPoint x="340" y="320" as="targetPoint"/>
                    </mxGeometry>
                </mxCell>
                <mxCell id="28" value="&amp;lt;&amp;lt;include&amp;gt;&amp;gt;" style="edgeLabel;resizable=0;html=1;align=center;verticalAlign=middle;" connectable="0" vertex="1" parent="27">
                    <mxGeometry relative="1" as="geometry"/>
                </mxCell>
                <mxCell id="29" value="" style="endArrow=classic;html=1;exitX=1;exitY=0;exitDx=0;exitDy=0;entryX=0.5;entryY=1;entryDx=0;entryDy=0;dashed=1;endFill=1;" edge="1" parent="1" source="5" target="13">
                    <mxGeometry relative="1" as="geometry">
                        <mxPoint x="467.57359312880703" y="461.7157287525381" as="sourcePoint"/>
                        <mxPoint x="350" y="330" as="targetPoint"/>
                    </mxGeometry>
                </mxCell>
                <mxCell id="30" value="&amp;lt;&amp;lt;include&amp;gt;&amp;gt;" style="edgeLabel;resizable=0;html=1;align=center;verticalAlign=middle;" connectable="0" vertex="1" parent="29">
                    <mxGeometry relative="1" as="geometry"/>
                </mxCell>
                <mxCell id="12" value="Renseigner l'entreprise du client" style="ellipse;whiteSpace=wrap;html=1;" vertex="1" parent="1">
                    <mxGeometry x="560" y="200" width="120" height="80" as="geometry"/>
                </mxCell>
                <mxCell id="31" value="" style="endArrow=none;html=1;exitX=1;exitY=0.5;exitDx=0;exitDy=0;entryX=0;entryY=0.5;entryDx=0;entryDy=0;dashed=1;endFill=0;startArrow=classic;startFill=1;" edge="1" parent="1" source="5" target="17">
                    <mxGeometry relative="1" as="geometry">
                        <mxPoint x="477.57359312880703" y="471.7157287525381" as="sourcePoint"/>
                        <mxPoint x="360" y="340" as="targetPoint"/>
                    </mxGeometry>
                </mxCell>
                <mxCell id="32" value="&amp;lt;&amp;lt;extend&amp;gt;&amp;gt;" style="edgeLabel;resizable=0;html=1;align=center;verticalAlign=middle;" connectable="0" vertex="1" parent="31">
                    <mxGeometry relative="1" as="geometry"/>
                </mxCell>
                <mxCell id="33" value="" style="endArrow=none;html=1;exitX=0.998;exitY=0.57;exitDx=0;exitDy=0;entryX=0;entryY=0.5;entryDx=0;entryDy=0;dashed=1;endFill=0;exitPerimeter=0;startArrow=classic;startFill=1;" edge="1" parent="1" source="5" target="18">
                    <mxGeometry relative="1" as="geometry">
                        <mxPoint x="529.9999999999998" y="450" as="sourcePoint"/>
                        <mxPoint x="689.9999999999998" y="400" as="targetPoint"/>
                    </mxGeometry>
                </mxCell>
                <mxCell id="34" value="&amp;lt;&amp;lt;extend&amp;gt;&amp;gt;" style="edgeLabel;resizable=0;html=1;align=center;verticalAlign=middle;" connectable="0" vertex="1" parent="33">
                    <mxGeometry relative="1" as="geometry"/>
                </mxCell>
                <mxCell id="36" value="Créer un nouveau devis pour un client" style="ellipse;whiteSpace=wrap;html=1;" vertex="1" parent="1">
                    <mxGeometry x="400" y="680" width="120" height="80" as="geometry"/>
                </mxCell>
                <mxCell id="37" value="" style="endArrow=none;html=1;entryX=-0.015;entryY=0.423;entryDx=0;entryDy=0;exitX=1;exitY=1;exitDx=0;exitDy=0;entryPerimeter=0;" edge="1" parent="1" source="3" target="36">
                    <mxGeometry width="50" height="50" relative="1" as="geometry">
                        <mxPoint x="362.42640687119297" y="551.7157287525381" as="sourcePoint"/>
                        <mxPoint x="409.9999999999998" y="450" as="targetPoint"/>
                    </mxGeometry>
                </mxCell>
                <mxCell id="38" value="Transmettre le devis" style="ellipse;whiteSpace=wrap;html=1;" vertex="1" parent="1">
                    <mxGeometry x="550" y="680" width="120" height="80" as="geometry"/>
                </mxCell>
                <mxCell id="39" value="" style="endArrow=none;html=1;exitX=1;exitY=0.5;exitDx=0;exitDy=0;" edge="1" parent="1" source="36">
                    <mxGeometry width="50" height="50" relative="1" as="geometry">
                        <mxPoint x="362.42640687119297" y="608.2842712474619" as="sourcePoint"/>
                        <mxPoint x="550" y="720" as="targetPoint"/>
                    </mxGeometry>
                </mxCell>
                <mxCell id="40" value="Archiver le devis" style="ellipse;whiteSpace=wrap;html=1;" vertex="1" parent="1">
                    <mxGeometry x="680" y="600" width="120" height="80" as="geometry"/>
                </mxCell>
                <mxCell id="41" value="Valider le devis" style="ellipse;whiteSpace=wrap;html=1;" vertex="1" parent="1">
                    <mxGeometry x="680" y="760" width="120" height="80" as="geometry"/>
                </mxCell>
                <mxCell id="42" value="" style="endArrow=none;html=1;exitX=1;exitY=0;exitDx=0;exitDy=0;entryX=0;entryY=1;entryDx=0;entryDy=0;" edge="1" parent="1" source="38" target="40">
                    <mxGeometry width="50" height="50" relative="1" as="geometry">
                        <mxPoint x="690" y="690" as="sourcePoint"/>
                        <mxPoint x="740" y="640" as="targetPoint"/>
                    </mxGeometry>
                </mxCell>
                <mxCell id="43" value="" style="endArrow=none;html=1;exitX=1;exitY=1;exitDx=0;exitDy=0;entryX=0;entryY=0;entryDx=0;entryDy=0;" edge="1" parent="1" source="38" target="41">
                    <mxGeometry width="50" height="50" relative="1" as="geometry">
                        <mxPoint x="662.4264068711927" y="701.7157287525381" as="sourcePoint"/>
                        <mxPoint x="707.573593128807" y="678.2842712474619" as="targetPoint"/>
                    </mxGeometry>
                </mxCell>
                <mxCell id="45" value="Créer une commande" style="ellipse;whiteSpace=wrap;html=1;" vertex="1" parent="1">
                    <mxGeometry x="920" y="760" width="120" height="80" as="geometry"/>
                </mxCell>
                <mxCell id="46" value="" style="endArrow=none;html=1;exitX=1;exitY=0.5;exitDx=0;exitDy=0;entryX=0;entryY=0.5;entryDx=0;entryDy=0;dashed=1;endFill=0;startArrow=classic;startFill=1;" edge="1" parent="1" source="41" target="45">
                    <mxGeometry relative="1" as="geometry">
                        <mxPoint x="529.76" y="455.5999999999999" as="sourcePoint"/>
                        <mxPoint x="689.9999999999998" y="500" as="targetPoint"/>
                    </mxGeometry>
                </mxCell>
                <mxCell id="47" value="&amp;lt;&amp;lt;extend&amp;gt;&amp;gt;" style="edgeLabel;resizable=0;html=1;align=center;verticalAlign=middle;" connectable="0" vertex="1" parent="46">
                    <mxGeometry relative="1" as="geometry"/>
                </mxCell>
                <mxCell id="48" value="Renseigner le libellé de la commande" style="ellipse;whiteSpace=wrap;html=1;" vertex="1" parent="1">
                    <mxGeometry x="1120" y="660" width="120" height="80" as="geometry"/>
                </mxCell>
                <mxCell id="50" value="Renseigner le nombre de jours" style="ellipse;whiteSpace=wrap;html=1;" vertex="1" parent="1">
                    <mxGeometry x="1121" y="860" width="120" height="80" as="geometry"/>
                </mxCell>
                <mxCell id="51" value="Renseigner le taux de TVA" style="ellipse;whiteSpace=wrap;html=1;" vertex="1" parent="1">
                    <mxGeometry x="1270" y="660" width="120" height="80" as="geometry"/>
                </mxCell>
                <mxCell id="52" value="Renseigner le statut de la commande" style="ellipse;whiteSpace=wrap;html=1;" vertex="1" parent="1">
                    <mxGeometry x="1270" y="760" width="120" height="80" as="geometry"/>
                </mxCell>
                <mxCell id="53" value="Renseigner le type de commande" style="ellipse;whiteSpace=wrap;html=1;" vertex="1" parent="1">
                    <mxGeometry x="1270" y="860" width="120" height="80" as="geometry"/>
                </mxCell>
                <mxCell id="54" value="" style="endArrow=classic;html=1;exitX=1;exitY=0;exitDx=0;exitDy=0;entryX=0;entryY=0.5;entryDx=0;entryDy=0;dashed=1;endFill=1;" edge="1" parent="1" source="45" target="48">
                    <mxGeometry relative="1" as="geometry">
                        <mxPoint x="999.9964068711927" y="750.8357287525379" as="sourcePoint"/>
                        <mxPoint x="1112.53" y="620.0000000000001" as="targetPoint"/>
                    </mxGeometry>
                </mxCell>
                <mxCell id="55" value="&amp;lt;&amp;lt;include&amp;gt;&amp;gt;" style="edgeLabel;resizable=0;html=1;align=center;verticalAlign=middle;" connectable="0" vertex="1" parent="54">
                    <mxGeometry relative="1" as="geometry"/>
                </mxCell>
                <mxCell id="56" value="" style="endArrow=classic;html=1;exitX=1;exitY=0;exitDx=0;exitDy=0;entryX=0.175;entryY=0.875;entryDx=0;entryDy=0;dashed=1;endFill=1;entryPerimeter=0;" edge="1" parent="1" source="45" target="51">
                    <mxGeometry relative="1" as="geometry">
                        <mxPoint x="1032.426406871193" y="781.7157287525379" as="sourcePoint"/>
                        <mxPoint x="1130" y="710" as="targetPoint"/>
                    </mxGeometry>
                </mxCell>
                <mxCell id="57" value="&amp;lt;&amp;lt;include&amp;gt;&amp;gt;" style="edgeLabel;resizable=0;html=1;align=center;verticalAlign=middle;" connectable="0" vertex="1" parent="56">
                    <mxGeometry relative="1" as="geometry"/>
                </mxCell>
                <mxCell id="58" value="" style="endArrow=classic;html=1;exitX=1;exitY=0.5;exitDx=0;exitDy=0;entryX=0;entryY=0.5;entryDx=0;entryDy=0;dashed=1;endFill=1;" edge="1" parent="1" source="45" target="49">
                    <mxGeometry relative="1" as="geometry">
                        <mxPoint x="1042.426406871193" y="791.7157287525379" as="sourcePoint"/>
                        <mxPoint x="1140" y="720" as="targetPoint"/>
                    </mxGeometry>
                </mxCell>
                <mxCell id="59" value="&amp;lt;&amp;lt;include&amp;gt;&amp;gt;" style="edgeLabel;resizable=0;html=1;align=center;verticalAlign=middle;" connectable="0" vertex="1" parent="58">
                    <mxGeometry relative="1" as="geometry"/>
                </mxCell>
                <mxCell id="60" value="" style="endArrow=classic;html=1;exitX=1;exitY=1;exitDx=0;exitDy=0;entryX=0;entryY=0;entryDx=0;entryDy=0;dashed=1;endFill=1;" edge="1" parent="1" source="45" target="53">
                    <mxGeometry relative="1" as="geometry">
                        <mxPoint x="1052.426406871193" y="801.7157287525379" as="sourcePoint"/>
                        <mxPoint x="1150" y="730" as="targetPoint"/>
                    </mxGeometry>
                </mxCell>
                <mxCell id="61" value="&amp;lt;&amp;lt;include&amp;gt;&amp;gt;" style="edgeLabel;resizable=0;html=1;align=center;verticalAlign=middle;" connectable="0" vertex="1" parent="60">
                    <mxGeometry relative="1" as="geometry"/>
                </mxCell>
                <mxCell id="63" value="" style="endArrow=classic;html=1;exitX=1;exitY=1;exitDx=0;exitDy=0;entryX=0;entryY=0;entryDx=0;entryDy=0;dashed=1;endFill=1;" edge="1" parent="1" source="45" target="50">
                    <mxGeometry relative="1" as="geometry">
                        <mxPoint x="1062.426406871193" y="811.7157287525379" as="sourcePoint"/>
                        <mxPoint x="1160" y="740" as="targetPoint"/>
                    </mxGeometry>
                </mxCell>
                <mxCell id="64" value="&amp;lt;&amp;lt;include&amp;gt;&amp;gt;" style="edgeLabel;resizable=0;html=1;align=center;verticalAlign=middle;" connectable="0" vertex="1" parent="63">
                    <mxGeometry relative="1" as="geometry"/>
                </mxCell>
                <mxCell id="65" value="" style="endArrow=classic;html=1;exitX=1;exitY=0.5;exitDx=0;exitDy=0;entryX=0;entryY=0.5;entryDx=0;entryDy=0;dashed=1;endFill=1;" edge="1" parent="1" source="45" target="52">
                    <mxGeometry relative="1" as="geometry">
                        <mxPoint x="1050" y="810" as="sourcePoint"/>
                        <mxPoint x="1131" y="810" as="targetPoint"/>
                    </mxGeometry>
                </mxCell>
                <mxCell id="66" value="&amp;lt;&amp;lt;include&amp;gt;&amp;gt;" style="edgeLabel;resizable=0;html=1;align=center;verticalAlign=middle;" connectable="0" vertex="1" parent="65">
                    <mxGeometry relative="1" as="geometry"/>
                </mxCell>
                <mxCell id="49" value="Renseigner le TJM" style="ellipse;whiteSpace=wrap;html=1;" vertex="1" parent="1">
                    <mxGeometry x="1121" y="760" width="120" height="80" as="geometry"/>
                </mxCell>
                <mxCell id="67" value="Renseigner des notes sur la commande" style="ellipse;whiteSpace=wrap;html=1;" vertex="1" parent="1">
                    <mxGeometry x="920" y="900" width="120" height="80" as="geometry"/>
                </mxCell>
                <mxCell id="68" value="" style="endArrow=none;html=1;exitX=0.5;exitY=1;exitDx=0;exitDy=0;entryX=0.5;entryY=0;entryDx=0;entryDy=0;dashed=1;endFill=0;startArrow=classic;startFill=1;" edge="1" parent="1" source="45" target="67">
                    <mxGeometry relative="1" as="geometry">
                        <mxPoint x="810" y="810" as="sourcePoint"/>
                        <mxPoint x="930" y="810" as="targetPoint"/>
                    </mxGeometry>
                </mxCell>
                <mxCell id="69" value="&amp;lt;&amp;lt;extend&amp;gt;&amp;gt;" style="edgeLabel;resizable=0;html=1;align=center;verticalAlign=middle;" connectable="0" vertex="1" parent="68">
                    <mxGeometry relative="1" as="geometry"/>
                </mxCell>
                <mxCell id="70" value="Proposer une garantie" style="ellipse;whiteSpace=wrap;html=1;" vertex="1" parent="1">
                    <mxGeometry x="920" y="590" width="120" height="80" as="geometry"/>
                </mxCell>
                <mxCell id="71" value="" style="endArrow=none;html=1;entryX=0.5;entryY=1;entryDx=0;entryDy=0;dashed=1;endFill=0;startArrow=classic;startFill=1;" edge="1" parent="1" target="70">
                    <mxGeometry relative="1" as="geometry">
                        <mxPoint x="980" y="760" as="sourcePoint"/>
                        <mxPoint x="990" y="909.9999999999998" as="targetPoint"/>
                    </mxGeometry>
                </mxCell>
                <mxCell id="72" value="&amp;lt;&amp;lt;extend&amp;gt;&amp;gt;" style="edgeLabel;resizable=0;html=1;align=center;verticalAlign=middle;" connectable="0" vertex="1" parent="71">
                    <mxGeometry relative="1" as="geometry"/>
                </mxCell>
                <mxCell id="73" value="Administrateur" style="shape=umlActor;verticalLabelPosition=bottom;verticalAlign=top;html=1;outlineConnect=0;" vertex="1" parent="1">
                    <mxGeometry x="50" y="1060" width="30" height="60" as="geometry"/>
                </mxCell>
                <mxCell id="74" value="Parcourir la liste des utilisateurs" style="ellipse;whiteSpace=wrap;html=1;" vertex="1" parent="1">
                    <mxGeometry x="250" y="1050" width="120" height="80" as="geometry"/>
                </mxCell>
                <mxCell id="75" value="" style="endArrow=none;html=1;entryX=0;entryY=0.5;entryDx=0;entryDy=0;" edge="1" parent="1" source="73" target="74">
                    <mxGeometry width="50" height="50" relative="1" as="geometry">
                        <mxPoint x="80" y="1089.66" as="sourcePoint"/>
                        <mxPoint x="250" y="1089.66" as="targetPoint"/>
                    </mxGeometry>
                </mxCell>
                <mxCell id="76" value="Créer un nouvel utilisateur" style="ellipse;whiteSpace=wrap;html=1;" vertex="1" parent="1">
                    <mxGeometry x="430" y="1050" width="120" height="80" as="geometry"/>
                </mxCell>
                <mxCell id="77" value="" style="endArrow=none;html=1;entryX=0;entryY=0.5;entryDx=0;entryDy=0;exitX=1;exitY=0.5;exitDx=0;exitDy=0;" edge="1" parent="1" source="74" target="76">
                    <mxGeometry width="50" height="50" relative="1" as="geometry">
                        <mxPoint x="405" y="1039.9999999999998" as="sourcePoint"/>
                        <mxPoint x="575" y="1039.9999999999998" as="targetPoint"/>
                    </mxGeometry>
                </mxCell>
                <mxCell id="78" value="Renseigner le login de l'utilisateur" style="ellipse;whiteSpace=wrap;html=1;" vertex="1" parent="1">
                    <mxGeometry x="340" y="820" width="120" height="80" as="geometry"/>
                </mxCell>
                <mxCell id="79" value="Renseigner le mot de passe de l'utilisateur" style="ellipse;whiteSpace=wrap;html=1;" vertex="1" parent="1">
                    <mxGeometry x="499" y="820" width="120" height="80" as="geometry"/>
                </mxCell>
                <mxCell id="80" value="Renseigner l'adresse email de l'utilisateur" style="ellipse;whiteSpace=wrap;html=1;" vertex="1" parent="1">
                    <mxGeometry x="279" y="920" width="120" height="80" as="geometry"/>
                </mxCell>
                <mxCell id="82" value="Renseigner les droits de l'utilisateur" style="ellipse;whiteSpace=wrap;html=1;" vertex="1" parent="1">
                    <mxGeometry x="560" y="920" width="120" height="80" as="geometry"/>
                </mxCell>
                <mxCell id="83" value="" style="endArrow=classic;html=1;exitX=0;exitY=0;exitDx=0;exitDy=0;dashed=1;endFill=1;entryX=1;entryY=1;entryDx=0;entryDy=0;" edge="1" parent="1" source="76" target="80">
                    <mxGeometry relative="1" as="geometry">
                        <mxPoint x="460.00359312880704" y="1059.995728752538" as="sourcePoint"/>
                        <mxPoint x="380" y="990" as="targetPoint"/>
                    </mxGeometry>
                </mxCell>
                <mxCell id="84" value="&amp;lt;&amp;lt;include&amp;gt;&amp;gt;" style="edgeLabel;resizable=0;html=1;align=center;verticalAlign=middle;" connectable="0" vertex="1" parent="83">
                    <mxGeometry relative="1" as="geometry"/>
                </mxCell>
                <mxCell id="85" value="" style="endArrow=classic;html=1;exitX=0.328;exitY=0.041;exitDx=0;exitDy=0;dashed=1;endFill=1;entryX=0.602;entryY=1.013;entryDx=0;entryDy=0;entryPerimeter=0;exitPerimeter=0;" edge="1" parent="1" source="76" target="78">
                    <mxGeometry relative="1" as="geometry">
                        <mxPoint x="457.57359312880703" y="1071.7157287525379" as="sourcePoint"/>
                        <mxPoint x="391.42640687119274" y="998.2842712474619" as="targetPoint"/>
                    </mxGeometry>
                </mxCell>
                <mxCell id="86" value="&amp;lt;&amp;lt;include&amp;gt;&amp;gt;" style="edgeLabel;resizable=0;html=1;align=center;verticalAlign=middle;" connectable="0" vertex="1" parent="85">
                    <mxGeometry relative="1" as="geometry"/>
                </mxCell>
                <mxCell id="87" value="" style="endArrow=classic;html=1;exitX=0.638;exitY=0.01;exitDx=0;exitDy=0;dashed=1;endFill=1;entryX=0.339;entryY=1.023;entryDx=0;entryDy=0;entryPerimeter=0;exitPerimeter=0;" edge="1" parent="1" source="76" target="79">
                    <mxGeometry relative="1" as="geometry">
                        <mxPoint x="467.57359312880703" y="1081.7157287525379" as="sourcePoint"/>
                        <mxPoint x="401.42640687119274" y="1008.2842712474619" as="targetPoint"/>
                    </mxGeometry>
                </mxCell>
                <mxCell id="88" value="&amp;lt;&amp;lt;include&amp;gt;&amp;gt;" style="edgeLabel;resizable=0;html=1;align=center;verticalAlign=middle;" connectable="0" vertex="1" parent="87">
                    <mxGeometry relative="1" as="geometry"/>
                </mxCell>
                <mxCell id="89" value="" style="endArrow=classic;html=1;exitX=0.9;exitY=0.176;exitDx=0;exitDy=0;dashed=1;endFill=1;entryX=0;entryY=1;entryDx=0;entryDy=0;exitPerimeter=0;" edge="1" parent="1" source="76" target="82">
                    <mxGeometry relative="1" as="geometry">
                        <mxPoint x="477.57359312880703" y="1091.7157287525379" as="sourcePoint"/>
                        <mxPoint x="411.42640687119274" y="1018.2842712474619" as="targetPoint"/>
                    </mxGeometry>
                </mxCell>
                <mxCell id="90" value="&amp;lt;&amp;lt;include&amp;gt;&amp;gt;" style="edgeLabel;resizable=0;html=1;align=center;verticalAlign=middle;" connectable="0" vertex="1" parent="89">
                    <mxGeometry relative="1" as="geometry"/>
                </mxCell>
                <mxCell id="91" value="Modifier un profil utilisateur" style="ellipse;whiteSpace=wrap;html=1;" vertex="1" parent="1">
                    <mxGeometry x="430" y="1210" width="120" height="80" as="geometry"/>
                </mxCell>
                <mxCell id="92" value="" style="endArrow=none;html=1;entryX=0;entryY=0;entryDx=0;entryDy=0;exitX=1;exitY=1;exitDx=0;exitDy=0;" edge="1" parent="1" source="74" target="91">
                    <mxGeometry width="50" height="50" relative="1" as="geometry">
                        <mxPoint x="380.0000000000002" y="1099.9999999999998" as="sourcePoint"/>
                        <mxPoint x="439.9999999999998" y="1099.9999999999998" as="targetPoint"/>
                    </mxGeometry>
                </mxCell>
                <mxCell id="93" value="" style="endArrow=block;html=1;exitX=0.5;exitY=0;exitDx=0;exitDy=0;entryX=0.5;entryY=1;entryDx=0;entryDy=0;endFill=0;" edge="1" parent="1" source="91" target="76">
                    <mxGeometry width="50" height="50" relative="1" as="geometry">
                        <mxPoint x="530" y="1190" as="sourcePoint"/>
                        <mxPoint x="580" y="1140" as="targetPoint"/>
                    </mxGeometry>
                </mxCell>
                <mxCell id="94" value="&lt;font style=&quot;font-size: 22px;&quot;&gt;Est-ce que la création de commande déclanche une action vers le préparateur (acteur à ajouter) ?&lt;/font&gt;" style="text;html=1;strokeColor=none;fillColor=none;align=center;verticalAlign=middle;whiteSpace=wrap;rounded=0;" vertex="1" parent="1">
                    <mxGeometry x="1400" y="725" width="240" height="205" as="geometry"/>
                </mxCell>
                <mxCell id="95" value="&lt;font style=&quot;font-size: 22px;&quot;&gt;Est-ce que le devis &amp;amp; le bon de commande doivent être imprimé ?&lt;br&gt;&lt;/font&gt;" style="text;html=1;strokeColor=none;fillColor=none;align=center;verticalAlign=middle;whiteSpace=wrap;rounded=0;" vertex="1" parent="1">
                    <mxGeometry x="1400" y="337.5" width="240" height="205" as="geometry"/>
                </mxCell>
                <mxCell id="96" value="&lt;font style=&quot;font-size: 22px;&quot;&gt;Est-ce que la pris en compte de la garantie fait une notification au service SAV ?&lt;/font&gt;" style="text;html=1;strokeColor=none;fillColor=none;align=center;verticalAlign=middle;whiteSpace=wrap;rounded=0;" vertex="1" parent="1">
                    <mxGeometry x="1400" y="1100" width="240" height="205" as="geometry"/>
                </mxCell>
                <mxCell id="97" value="SAV" style="shape=umlActor;verticalLabelPosition=bottom;verticalAlign=top;html=1;outlineConnect=0;" vertex="1" parent="1">
                    <mxGeometry x="50" y="1440" width="30" height="60" as="geometry"/>
                </mxCell>
                <mxCell id="98" value="Visualiser la liste des garanties en cours" style="ellipse;whiteSpace=wrap;html=1;" vertex="1" parent="1">
                    <mxGeometry x="240" y="1430" width="120" height="80" as="geometry"/>
                </mxCell>
                <mxCell id="99" value="" style="endArrow=none;html=1;entryX=0;entryY=0.5;entryDx=0;entryDy=0;" edge="1" parent="1" source="97" target="98">
                    <mxGeometry width="50" height="50" relative="1" as="geometry">
                        <mxPoint x="362.42640687119297" y="1128.284271247462" as="sourcePoint"/>
                        <mxPoint x="457.57359312880703" y="1231.715728752538" as="targetPoint"/>
                    </mxGeometry>
                </mxCell>
                <mxCell id="100" value="Préparateur de commande" style="shape=umlActor;verticalLabelPosition=bottom;verticalAlign=top;html=1;outlineConnect=0;" vertex="1" parent="1">
                    <mxGeometry x="1500" y="230" width="30" height="60" as="geometry"/>
                </mxCell>
                <mxCell id="102" value="" style="endArrow=none;html=1;fontSize=22;exitX=0.667;exitY=0;exitDx=0;exitDy=0;exitPerimeter=0;" edge="1" parent="1" source="45" target="100">
                    <mxGeometry width="50" height="50" relative="1" as="geometry">
                        <mxPoint x="1200" y="770" as="sourcePoint"/>
                        <mxPoint x="1450" y="480" as="targetPoint"/>
                    </mxGeometry>
                </mxCell>
            </root>
        </mxGraphModel>
    </diagram>
</mxfile>